<svg width="24" height="24" viewBox="0 0 24 24" fill="none" xmlns="http://www.w3.org/2000/svg">
<mask id="mask0_812_3018" style="mask-type:alpha" maskUnits="userSpaceOnUse" x="0" y="0" width="24" height="24">
<circle cx="12" cy="12" r="12" fill="#C4C4C4"/>
</mask>
<g mask="url(#mask0_812_3018)">
<path d="M4.81847 2.33969C6.59838 1.02079 8.70208 0.223501 10.8946 0.0253906V3.6535C9.47732 3.83724 8.12377 4.37987 6.96595 5.23781C5.51618 6.31207 4.45005 7.82381 3.92479 9.55006C3.39953 11.2763 3.44295 13.1257 4.04866 14.8254C4.65437 16.5251 5.79029 17.9851 7.28888 18.9901C8.78747 19.9951 10.5694 20.4919 12.3718 20.4072C14.1742 20.3226 15.9017 19.6608 17.2994 18.5197C18.6971 17.3786 19.6911 15.8185 20.1348 14.0695C20.4443 12.8495 20.4745 11.5827 20.2321 10.3614L23.2788 7.91211L23.2768 7.89236C24.0992 10.1546 24.2248 12.6158 23.6311 14.9564C22.9973 17.4549 21.5773 19.6837 19.5805 21.3138C17.5838 22.944 15.116 23.8893 12.5411 24.0103C9.96622 24.1313 7.42064 23.4216 5.2798 21.9858C3.13896 20.5501 1.51622 18.4643 0.650919 16.0362C-0.214378 13.6081 -0.276417 10.9661 0.473955 8.50005C1.22433 6.03397 2.74738 3.87434 4.81847 2.33969Z" fill="#FE1170"/>
<path d="M20.9815 4.03262L20.9943 4.06459L18.9583 7.29821C18.2179 6.20104 17.2257 5.28779 16.0646 4.64139V12.0001C16.0646 14.2578 14.2344 16.0881 11.9767 16.0881C9.71892 16.0881 7.88867 14.2578 7.88867 12.0001C7.88867 9.74236 9.71892 7.91211 11.9767 7.91211C12.8228 7.91211 13.6089 8.16918 14.2611 8.60948V0.193359C16.9152 0.703852 19.2587 2.08705 20.9815 4.03262Z" fill="#FE1170"/>
</g>
</svg>
