<svg width="16" height="18" viewBox="0 0 16 18" fill="none" xmlns="http://www.w3.org/2000/svg">
<path d="M1 14.3336V3.66698C1 2.78742 1 2.34715 1.18509 2.08691C1.34664 1.85977 1.59564 1.71064 1.87207 1.67499C2.18868 1.63415 2.57701 1.84126 3.35254 2.25487L13.3525 7.58821L13.3562 7.58982C14.2132 8.04692 14.642 8.27557 14.7826 8.58033C14.9053 8.84619 14.9053 9.15308 14.7826 9.41894C14.6418 9.72413 14.212 9.95371 13.3525 10.4121L3.35254 15.7454C2.57645 16.1593 2.1888 16.3657 1.87207 16.3248C1.59564 16.2891 1.34664 16.1401 1.18509 15.9129C1 15.6527 1 15.2132 1 14.3336Z" stroke="white" stroke-width="2" stroke-linecap="round" stroke-linejoin="round"/>
</svg>
