<svg width="100" height="100" viewBox="0 0 100 100" fill="none" xmlns="http://www.w3.org/2000/svg">
<g id="Edit / Edit_Pencil_Line_01">
<path id="Vector" d="M16.6666 83.3345H83.3333M16.6666 83.3345V66.6678L50 33.3345M16.6666 83.3345L33.3333 83.3344L66.6666 50.0011M50 33.3345L61.9526 21.3817L61.9598 21.3747C63.6051 19.7293 64.4293 18.9052 65.3793 18.5965C66.2161 18.3246 67.1176 18.3246 67.9545 18.5965C68.9038 18.905 69.727 19.7282 71.37 21.3712L78.6192 28.6203C80.2692 30.2704 81.0946 31.0958 81.4038 32.0472C81.6757 32.884 81.6756 33.7855 81.4037 34.6223C81.0948 35.573 80.2706 36.3972 78.6229 38.0449L78.6193 38.0484L66.6666 50.0011M50 33.3345L66.6666 50.0011" stroke="white" stroke-width="8.41667" stroke-linecap="round" stroke-linejoin="round"/>
</g>
</svg>
