<svg width="24" height="24" viewBox="0 0 24 24" fill="none" xmlns="http://www.w3.org/2000/svg">
<path d="M18.9999 15.0006V4.00058C18.9992 3.85037 18.9647 3.70225 18.8989 3.56722C18.8332 3.43218 18.7378 3.3137 18.6199 3.22058C18.5038 3.1266 18.368 3.05985 18.2226 3.02524C18.0773 2.99063 17.926 2.98904 17.7799 3.02058L8.77994 5.02058C8.55776 5.07068 8.35934 5.19513 8.2175 5.37333C8.07567 5.55154 7.99892 5.77282 7.99994 6.00058V14.3406C7.31727 14.0183 6.54851 13.9261 5.80897 14.0777C5.06944 14.2293 4.39902 14.6167 3.89828 15.1816C3.39754 15.7466 3.09348 16.4587 3.03172 17.211C2.96996 17.9634 3.15383 18.7156 3.55574 19.3546C3.95765 19.9936 4.55593 20.4851 5.26084 20.7553C5.96574 21.0256 6.73926 21.0599 7.46534 20.8533C8.19143 20.6466 8.83094 20.2101 9.28792 19.6092C9.74491 19.0083 9.99474 18.2755 9.99994 17.5206C10.0103 17.3474 10.0103 17.1738 9.99994 17.0006V6.80058L16.9999 5.25058V12.3406C16.3169 12.0181 15.5477 11.9259 14.8077 12.0779C14.0679 12.2299 13.3972 12.6178 12.8966 13.1834C12.396 13.7491 12.0924 14.4618 12.0314 15.2147C11.9704 15.9676 12.1553 16.7199 12.5583 17.3588C12.9614 17.9976 13.5608 18.4884 14.2666 18.7575C14.9724 19.0266 15.7464 19.0595 16.4725 18.8512C17.1985 18.6429 17.8374 18.2046 18.2931 17.6023C18.7489 16.9999 18.9969 16.2659 18.9999 15.5106C19.0094 15.3407 19.0094 15.1704 18.9999 15.0006ZM6.53994 19.0006C6.25812 19.0005 5.9821 18.9205 5.74393 18.7698C5.50576 18.6191 5.3152 18.404 5.19436 18.1494C5.07353 17.8948 5.02738 17.6112 5.06127 17.3314C5.09516 17.0516 5.20769 16.7872 5.38582 16.5688C5.56395 16.3504 5.80036 16.187 6.06761 16.0976C6.33487 16.0082 6.62201 15.9964 6.8957 16.0635C7.16939 16.1307 7.41842 16.2742 7.61387 16.4772C7.80933 16.6802 7.9432 16.9345 7.99994 17.2106C8.00977 17.3103 8.00977 17.4108 7.99994 17.5106C8.00002 17.9006 7.84716 18.2751 7.57419 18.5537C7.30121 18.8323 6.92989 18.9927 6.53994 19.0006ZM15.5399 17.0006C15.2552 17.0028 14.9757 16.9239 14.7341 16.7732C14.4926 16.6224 14.2989 16.406 14.1758 16.1493C14.0526 15.8925 14.0051 15.606 14.0388 15.3233C14.0724 15.0405 14.1859 14.7732 14.3659 14.5525C14.5458 14.3319 14.7849 14.167 15.0551 14.0772C15.3253 13.9874 15.6155 13.9763 15.8918 14.0453C16.1681 14.1144 16.419 14.2606 16.6152 14.4669C16.8114 14.6733 16.9449 14.9312 16.9999 15.2106C17.0098 15.3103 17.0098 15.4108 16.9999 15.5106C16.9973 15.9049 16.8395 16.2824 16.5606 16.5613C16.2818 16.8401 15.9043 16.998 15.5099 17.0006H15.5399Z" fill="white"/>
</svg>
