<svg width="24" height="24" viewBox="0 0 24 24" fill="none" xmlns="http://www.w3.org/2000/svg">
<g id="Interface / Settings">
<g id="Vector">
<path d="M20.3499 8.92098L19.9837 8.71725C19.9269 8.68561 19.8989 8.66974 19.8714 8.65328C19.5983 8.4897 19.3682 8.26368 19.2002 7.99328C19.1833 7.96607 19.1674 7.93754 19.1348 7.88114C19.1023 7.82482 19.0858 7.79628 19.0706 7.76803C18.92 7.48671 18.8385 7.1732 18.8336 6.85411C18.8331 6.82203 18.8332 6.78925 18.8343 6.72409L18.8415 6.29883C18.8529 5.6183 18.8587 5.27698 18.763 4.97067C18.6781 4.69858 18.536 4.44797 18.3462 4.2353C18.1317 3.9949 17.8347 3.82339 17.2402 3.48081L16.7464 3.19625C16.1536 2.85463 15.8571 2.68376 15.5423 2.61861C15.2639 2.56098 14.9765 2.56366 14.6991 2.62594C14.3859 2.69623 14.0931 2.87156 13.5079 3.22201L13.5045 3.22359L13.1507 3.43546C13.0948 3.46896 13.0665 3.48584 13.0384 3.50143C12.7601 3.65615 12.4495 3.7417 12.1312 3.75192C12.0992 3.75294 12.0665 3.75294 12.0013 3.75294C11.9365 3.75294 11.9024 3.75294 11.8704 3.75192C11.5515 3.74166 11.2402 3.65564 10.9615 3.50028C10.9334 3.48462 10.9056 3.4676 10.8496 3.43395L10.4935 3.22018C9.90422 2.86641 9.60915 2.68926 9.29427 2.61861C9.0157 2.55611 8.72737 2.55438 8.44791 2.61276C8.13236 2.67866 7.83577 2.8508 7.24258 3.19508L7.23994 3.19625L6.75228 3.47929L6.74688 3.48259C6.15904 3.82376 5.86441 3.99476 5.6517 4.23418C5.46294 4.44665 5.32185 4.69686 5.2374 4.96822C5.14194 5.27496 5.14703 5.61701 5.15853 6.30074L5.16568 6.7254C5.16676 6.78971 5.16864 6.82167 5.16817 6.85329C5.16343 7.17304 5.08086 7.48718 4.92974 7.76901C4.9148 7.79688 4.8987 7.82475 4.86654 7.88042C4.83436 7.93613 4.81877 7.96384 4.80209 7.99072C4.63336 8.26257 4.40214 8.48991 4.12733 8.65377C4.10015 8.66998 4.0715 8.68557 4.01521 8.71676L3.65365 8.91713C3.05208 9.2505 2.75137 9.41733 2.53256 9.65474C2.33898 9.86477 2.19275 10.1139 2.10349 10.3852C2.00259 10.6919 2.00267 11.0358 2.00424 11.7236L2.00551 12.2857C2.00706 12.9689 2.00919 13.3102 2.11032 13.6149C2.19979 13.8844 2.34495 14.132 2.53744 14.3408C2.75502 14.5768 3.05274 14.7425 3.64974 15.0747L4.00808 15.274C4.06907 15.3079 4.09976 15.3247 4.12917 15.3424C4.40148 15.5064 4.63089 15.7331 4.79818 16.0034C4.81625 16.0326 4.8336 16.0629 4.8683 16.1235C4.90256 16.1834 4.92009 16.2133 4.93594 16.2433C5.08261 16.521 5.16114 16.8295 5.16649 17.1435C5.16707 17.1774 5.16658 17.2118 5.16541 17.2807L5.15853 17.6882C5.14695 18.3743 5.1419 18.7178 5.23792 19.0253C5.32287 19.2974 5.46484 19.548 5.65463 19.7607C5.86915 20.0011 6.16655 20.1725 6.76107 20.5151L7.25478 20.7996C7.84763 21.1412 8.14395 21.3119 8.45869 21.377C8.73714 21.4347 9.02464 21.4324 9.30209 21.3701C9.61567 21.2997 9.90948 21.1238 10.4964 20.7724L10.8502 20.5605C10.9062 20.527 10.9346 20.5102 10.9626 20.4946C11.2409 20.3399 11.5512 20.2539 11.8695 20.2437C11.9015 20.2426 11.9342 20.2426 11.9994 20.2426C12.0648 20.2426 12.0974 20.2426 12.1295 20.2437C12.4484 20.2539 12.7607 20.3402 13.0394 20.4956C13.0639 20.5092 13.0885 20.524 13.1316 20.5499L13.5078 20.7757C14.0971 21.1296 14.3916 21.3062 14.7065 21.3768C14.985 21.4393 15.2736 21.4419 15.5531 21.3835C15.8685 21.3176 16.1657 21.1451 16.7586 20.801L17.2536 20.5138C17.8418 20.1724 18.1367 20.0012 18.3495 19.7617C18.5383 19.5492 18.6796 19.2991 18.764 19.0278C18.8588 18.7232 18.8531 18.3838 18.8417 17.71L18.8343 17.2705C18.8332 17.2062 18.8331 17.1742 18.8336 17.1425C18.8383 16.8228 18.9195 16.5084 19.0706 16.2266C19.0856 16.1988 19.1018 16.1707 19.1338 16.1152C19.166 16.0595 19.1827 16.0317 19.1994 16.0048C19.3681 15.733 19.5995 15.5055 19.8744 15.3416C19.9012 15.3256 19.9289 15.3103 19.9838 15.2798L19.9857 15.2789L20.3472 15.0786C20.9488 14.7452 21.2501 14.5782 21.4689 14.3408C21.6625 14.1308 21.8085 13.882 21.8978 13.6107C21.9981 13.3058 21.9973 12.9638 21.9958 12.2841L21.9945 11.7099C21.9929 11.0268 21.9921 10.6854 21.891 10.3808C21.8015 10.1113 21.6555 9.86366 21.463 9.6549C21.2457 9.41915 20.9475 9.2533 20.3517 8.92183L20.3499 8.92098Z" stroke="#787885" stroke-width="2" stroke-linecap="round" stroke-linejoin="round"/>
<path d="M8.00033 11.998C8.00033 14.2071 9.79119 15.998 12.0003 15.998C14.2095 15.998 16.0003 14.2071 16.0003 11.998C16.0003 9.78887 14.2095 7.99801 12.0003 7.99801C9.79119 7.99801 8.00033 9.78887 8.00033 11.998Z" stroke="#787885" stroke-width="2" stroke-linecap="round" stroke-linejoin="round"/>
</g>
</g>
</svg>
