<svg width="20" height="20" viewBox="0 0 20 20" fill="none" xmlns="http://www.w3.org/2000/svg">
<g id="Social Icons" clip-path="url(#clip0_910_1599)">
<path id="Vector" d="M0 9.6C0 5.0745 0 2.81177 1.40589 1.40589C2.81177 0 5.0745 0 9.6 0H10.4C14.9255 0 17.1882 0 18.5941 1.40589C20 2.81177 20 5.0745 20 9.6V10.4C20 14.9255 20 17.1882 18.5941 18.5941C17.1882 20 14.9255 20 10.4 20H9.6C5.0745 20 2.81177 20 1.40589 18.5941C0 17.1882 0 14.9255 0 10.4V9.6Z" fill="#787885"/>
<path id="Vector_2" d="M10.6417 14.409C6.08333 14.409 3.48338 11.284 3.37504 6.08398H5.65838C5.73338 9.90065 7.41667 11.5173 8.75 11.8507V6.08398H10.9001V9.37565C12.2168 9.23398 13.5999 7.73398 14.0666 6.08398H16.2166C15.8583 8.11732 14.3583 9.61732 13.2916 10.234C14.3583 10.734 16.0667 12.0423 16.7167 14.409H14.35C13.8416 12.8257 12.5751 11.6007 10.9001 11.434V14.409H10.6417Z" fill="white"/>
</g>
<defs>
<clipPath id="clip0_910_1599">
<rect width="20" height="20" fill="white"/>
</clipPath>
</defs>
</svg>
