<svg width="20" height="20" viewBox="0 0 20 20" fill="none" xmlns="http://www.w3.org/2000/svg">
<mask id="mask0_910_1596" style="mask-type:alpha" maskUnits="userSpaceOnUse" x="0" y="0" width="20" height="20">
<circle cx="10" cy="10" r="10" fill="#C4C4C4"/>
</mask>
<g mask="url(#mask0_910_1596)">
<path d="M4.01537 1.95006C5.49863 0.850981 7.25172 0.186576 9.07883 0.0214844V3.04491C7.89775 3.19803 6.76979 3.65022 5.80494 4.36516C4.5968 5.26038 3.70835 6.52017 3.27064 7.95871C2.83292 9.39725 2.86911 10.9384 3.37387 12.3548C3.87862 13.7712 4.82522 14.9879 6.07405 15.8254C7.32287 16.6629 8.80779 17.0769 10.3098 17.0064C11.8118 16.9358 13.2514 16.3844 14.4161 15.4334C15.5809 14.4825 16.4093 13.1824 16.779 11.7249C17.0369 10.7082 17.0621 9.65257 16.8601 8.63483L19.399 6.59375L19.3973 6.57729C20.0826 8.46253 20.1873 10.5135 19.6926 12.464C19.1644 14.5461 17.9811 16.4034 16.3171 17.7619C14.6531 19.1203 12.5966 19.9081 10.4509 20.0089C8.30517 20.1097 6.18385 19.5183 4.39981 18.3219C2.61578 17.1254 1.2635 15.3873 0.542415 13.3638C-0.178667 11.3404 -0.230365 9.13876 0.394945 7.0837C1.02025 5.02864 2.28947 3.22894 4.01537 1.95006Z" fill="#787885"/>
<path d="M17.4846 3.35954L17.4953 3.38619L15.7986 6.08087C15.1816 5.16655 14.3548 4.40552 13.3872 3.86685V9.9991C13.3872 11.8805 11.862 13.4058 9.98058 13.4058C8.09914 13.4058 6.57393 11.8805 6.57393 9.9991C6.57393 8.11766 8.09914 6.59245 9.98058 6.59245C10.6857 6.59245 11.3408 6.80667 11.8843 7.17359V0.160156C14.096 0.585567 16.049 1.73823 17.4846 3.35954Z" fill="#787885"/>
</g>
</svg>
