<svg width="199" height="38" viewBox="0 0 199 38" fill="none" xmlns="http://www.w3.org/2000/svg">
<path d="M52.88 26V12H58.64C59.88 12 60.94 12.2 61.82 12.6C62.7133 13 63.4 13.5733 63.88 14.32C64.36 15.0667 64.6 15.9533 64.6 16.98C64.6 18.0067 64.36 18.8933 63.88 19.64C63.4 20.3733 62.7133 20.94 61.82 21.34C60.94 21.7267 59.88 21.92 58.64 21.92H54.32L55.48 20.74V26H52.88ZM62.04 26L58.5 20.92H61.28L64.84 26H62.04ZM55.48 21.02L54.32 19.78H58.52C59.6667 19.78 60.5267 19.5333 61.1 19.04C61.6867 18.5467 61.98 17.86 61.98 16.98C61.98 16.0867 61.6867 15.4 61.1 14.92C60.5267 14.44 59.6667 14.2 58.52 14.2H54.32L55.48 12.92V21.02ZM67.5089 26V12H70.1089V26H67.5089ZM78.2356 26.2C77.1423 26.2 76.0956 26.0467 75.0956 25.74C74.0956 25.42 73.3023 25.0133 72.7156 24.52L73.6156 22.5C74.1756 22.94 74.869 23.3067 75.6956 23.6C76.5223 23.8933 77.369 24.04 78.2356 24.04C78.969 24.04 79.5623 23.96 80.0156 23.8C80.469 23.64 80.8023 23.4267 81.0156 23.16C81.229 22.88 81.3356 22.5667 81.3356 22.22C81.3356 21.7933 81.1823 21.4533 80.8756 21.2C80.569 20.9333 80.169 20.7267 79.6756 20.58C79.1956 20.42 78.6556 20.2733 78.0556 20.14C77.469 20.0067 76.8756 19.8533 76.2756 19.68C75.689 19.4933 75.149 19.26 74.6556 18.98C74.1756 18.6867 73.7823 18.3 73.4756 17.82C73.169 17.34 73.0156 16.7267 73.0156 15.98C73.0156 15.22 73.2156 14.5267 73.6156 13.9C74.029 13.26 74.649 12.7533 75.4756 12.38C76.3156 11.9933 77.3756 11.8 78.6556 11.8C79.4956 11.8 80.329 11.9067 81.1556 12.12C81.9823 12.3333 82.7023 12.64 83.3156 13.04L82.4956 15.06C81.869 14.6867 81.2223 14.4133 80.5556 14.24C79.889 14.0533 79.249 13.96 78.6356 13.96C77.9156 13.96 77.329 14.0467 76.8756 14.22C76.4356 14.3933 76.109 14.62 75.8956 14.9C75.6956 15.18 75.5956 15.5 75.5956 15.86C75.5956 16.2867 75.7423 16.6333 76.0356 16.9C76.3423 17.1533 76.7356 17.3533 77.2156 17.5C77.709 17.6467 78.2556 17.7933 78.8556 17.94C79.4556 18.0733 80.049 18.2267 80.6356 18.4C81.2356 18.5733 81.7756 18.8 82.2556 19.08C82.749 19.36 83.1423 19.74 83.4356 20.22C83.7423 20.7 83.8956 21.3067 83.8956 22.04C83.8956 22.7867 83.689 23.48 83.2756 24.12C82.8756 24.7467 82.2556 25.2533 81.4156 25.64C80.5756 26.0133 79.5156 26.2 78.2356 26.2ZM86.4738 26V12H89.0738V26H86.4738ZM92.8605 26V12H95.0005L103.78 22.78H102.72V12H105.3V26H103.16L94.3805 15.22H95.4405V26H92.8605ZM115.592 26.2C114.499 26.2 113.492 26.0267 112.572 25.68C111.665 25.32 110.872 24.82 110.192 24.18C109.512 23.5267 108.985 22.76 108.612 21.88C108.239 21 108.052 20.04 108.052 19C108.052 17.96 108.239 17 108.612 16.12C108.985 15.24 109.512 14.48 110.192 13.84C110.885 13.1867 111.692 12.6867 112.612 12.34C113.532 11.98 114.539 11.8 115.632 11.8C116.819 11.8 117.885 11.9933 118.832 12.38C119.792 12.7667 120.599 13.3333 121.252 14.08L119.612 15.68C119.065 15.1333 118.472 14.7333 117.832 14.48C117.205 14.2133 116.512 14.08 115.752 14.08C115.019 14.08 114.339 14.2 113.712 14.44C113.085 14.68 112.545 15.02 112.092 15.46C111.639 15.9 111.285 16.42 111.032 17.02C110.792 17.62 110.672 18.28 110.672 19C110.672 19.7067 110.792 20.36 111.032 20.96C111.285 21.56 111.639 22.0867 112.092 22.54C112.545 22.98 113.079 23.32 113.692 23.56C114.305 23.8 114.985 23.92 115.732 23.92C116.425 23.92 117.092 23.8133 117.732 23.6C118.385 23.3733 119.005 23 119.592 22.48L121.072 24.42C120.339 25.0067 119.485 25.4533 118.512 25.76C117.552 26.0533 116.579 26.2 115.592 26.2ZM118.612 24.08V18.84H121.072V24.42L118.612 24.08ZM130.028 26V12H132.168L140.948 22.78H139.888V12H142.468V26H140.328L131.548 15.22H132.608V26H130.028ZM152.78 26.2C151.687 26.2 150.68 26.02 149.76 25.66C148.84 25.3 148.04 24.8 147.36 24.16C146.68 23.5067 146.153 22.7467 145.78 21.88C145.407 21 145.22 20.04 145.22 19C145.22 17.96 145.407 17.0067 145.78 16.14C146.153 15.26 146.68 14.5 147.36 13.86C148.04 13.2067 148.84 12.7 149.76 12.34C150.68 11.98 151.68 11.8 152.76 11.8C153.853 11.8 154.853 11.98 155.76 12.34C156.68 12.7 157.48 13.2067 158.16 13.86C158.84 14.5 159.367 15.26 159.74 16.14C160.113 17.0067 160.3 17.96 160.3 19C160.3 20.04 160.113 21 159.74 21.88C159.367 22.76 158.84 23.52 158.16 24.16C157.48 24.8 156.68 25.3 155.76 25.66C154.853 26.02 153.86 26.2 152.78 26.2ZM152.76 23.92C153.467 23.92 154.12 23.8 154.72 23.56C155.32 23.32 155.84 22.98 156.28 22.54C156.72 22.0867 157.06 21.5667 157.3 20.98C157.553 20.38 157.68 19.72 157.68 19C157.68 18.28 157.553 17.6267 157.3 17.04C157.06 16.44 156.72 15.92 156.28 15.48C155.84 15.0267 155.32 14.68 154.72 14.44C154.12 14.2 153.467 14.08 152.76 14.08C152.053 14.08 151.4 14.2 150.8 14.44C150.213 14.68 149.693 15.0267 149.24 15.48C148.8 15.92 148.453 16.44 148.2 17.04C147.96 17.6267 147.84 18.28 147.84 19C147.84 19.7067 147.96 20.36 148.2 20.96C148.453 21.56 148.8 22.0867 149.24 22.54C149.68 22.98 150.2 23.32 150.8 23.56C151.4 23.8 152.053 23.92 152.76 23.92ZM165.7 26V14.2H161.06V12H172.94V14.2H168.3V26H165.7ZM177.292 17.82H184.252V19.96H177.292V17.82ZM177.492 23.82H185.392V26H174.892V12H185.112V14.18H177.492V23.82ZM192.63 26.2C191.537 26.2 190.49 26.0467 189.49 25.74C188.49 25.42 187.697 25.0133 187.11 24.52L188.01 22.5C188.57 22.94 189.263 23.3067 190.09 23.6C190.917 23.8933 191.763 24.04 192.63 24.04C193.363 24.04 193.957 23.96 194.41 23.8C194.863 23.64 195.197 23.4267 195.41 23.16C195.623 22.88 195.73 22.5667 195.73 22.22C195.73 21.7933 195.577 21.4533 195.27 21.2C194.963 20.9333 194.563 20.7267 194.07 20.58C193.59 20.42 193.05 20.2733 192.45 20.14C191.863 20.0067 191.27 19.8533 190.67 19.68C190.083 19.4933 189.543 19.26 189.05 18.98C188.57 18.6867 188.177 18.3 187.87 17.82C187.563 17.34 187.41 16.7267 187.41 15.98C187.41 15.22 187.61 14.5267 188.01 13.9C188.423 13.26 189.043 12.7533 189.87 12.38C190.71 11.9933 191.77 11.8 193.05 11.8C193.89 11.8 194.723 11.9067 195.55 12.12C196.377 12.3333 197.097 12.64 197.71 13.04L196.89 15.06C196.263 14.6867 195.617 14.4133 194.95 14.24C194.283 14.0533 193.643 13.96 193.03 13.96C192.31 13.96 191.723 14.0467 191.27 14.22C190.83 14.3933 190.503 14.62 190.29 14.9C190.09 15.18 189.99 15.5 189.99 15.86C189.99 16.2867 190.137 16.6333 190.43 16.9C190.737 17.1533 191.13 17.3533 191.61 17.5C192.103 17.6467 192.65 17.7933 193.25 17.94C193.85 18.0733 194.443 18.2267 195.03 18.4C195.63 18.5733 196.17 18.8 196.65 19.08C197.143 19.36 197.537 19.74 197.83 20.22C198.137 20.7 198.29 21.3067 198.29 22.04C198.29 22.7867 198.083 23.48 197.67 24.12C197.27 24.7467 196.65 25.2533 195.81 25.64C194.97 26.0133 193.91 26.2 192.63 26.2Z" fill="#FE1170"/>
<path d="M27.0741 17.9371C30.3476 19.8843 30.3476 24.624 27.0741 26.5711L9.05968 37.2867C5.71143 39.2784 1.46875 36.8655 1.46875 32.9697L1.46875 11.5385C1.46875 7.6427 5.71142 5.22987 9.05967 7.22152L27.0741 17.9371Z" fill="url(#paint0_linear_2770_6165)"/>
<path d="M33.052 18.7509C34.7501 16.4779 34.2614 13.0208 31.5859 11.4293L25.5308 7.82756V4.70341H21.132V5.21096L13.5714 0.713706C11.751 -0.369162 9.66611 -0.150005 8.14252 0.901617C6.86384 1.78418 5.98047 3.25307 5.98047 5.03074L5.98047 26.4619C5.98047 29.3838 8.367 31.4715 10.9728 31.4924C11.8414 31.4994 12.7343 31.2768 13.5714 30.7789C13.5714 30.7789 13.5714 30.7789 13.5714 30.7789L31.5858 20.0633C31.5858 20.0633 31.5858 20.0633 31.5858 20.0633C32.1837 19.7077 32.6725 19.2588 33.052 18.7509Z" fill="url(#paint1_linear_2770_6165)"/>
<path d="M24.9641 12.2089C26.1193 11.7377 27.0525 10.8261 27.5686 9.66446C28.0846 8.50287 28.1436 7.18131 27.7331 5.97609C27.3227 4.77088 26.4746 3.77532 25.3662 3.19759C24.4259 2.70744 23.3599 2.55022 22.3322 2.74064C22.1292 2.75503 21.9237 2.79962 21.7207 2.87778L9.15889 7.71622C8.95096 7.79631 8.76882 7.91433 8.61731 8.05933C8.30528 8.32822 8.10774 8.72631 8.10774 9.17053V26.467C7.33739 26.1565 6.45913 25.9807 5.52697 25.9807C2.47451 25.9807 0 27.866 0 30.1917C0 32.5174 2.47451 34.4027 5.52697 34.4027C8.57944 34.4027 11.0539 32.5174 11.0539 30.1917C11.0539 30.0915 11.0494 29.9922 11.0403 29.8938V10.1192L22.5698 5.52497L22.5777 5.55171C23.0948 5.3902 23.6526 5.44028 24.1345 5.69149C24.6165 5.94269 24.9852 6.37557 25.1637 6.89961C25.3421 7.42364 25.3165 7.99827 25.0921 8.50334C24.8677 9.00841 24.462 9.40481 23.9597 9.60967L23.9625 9.61703L14.0925 13.2948C13.8547 13.3834 13.6611 13.5615 13.5529 13.7911C12.9823 15.0021 14.1758 16.2921 15.4275 15.8172L20.2495 13.9876C21.0981 13.8827 23.8224 13.9979 23.8449 16.6798C23.8601 18.4838 23.858 19.5228 23.8523 20.0386C23.0558 19.6995 22.1377 19.5062 21.1604 19.5062C18.108 19.5062 15.6334 21.3916 15.6334 23.7173C15.6334 26.043 18.108 27.9283 21.1604 27.9283C24.078 27.9283 26.4676 26.2059 26.6731 24.0228H26.7137V16.6798C26.7049 15.7148 26.2505 13.5058 24.5029 12.3898C24.4986 12.3871 24.4943 12.3844 24.49 12.3817L24.487 12.3798L24.8647 12.2365C24.8969 12.2243 24.9286 12.2114 24.9598 12.1977L24.9641 12.2089Z" fill="white"/>
<path d="M25.2801 7.67851L27.7625 9.15513C28.0919 8.12583 28.0847 7.00829 27.7331 5.97609C27.3227 4.77088 26.4746 3.77532 25.3662 3.19759C24.4259 2.70744 23.3599 2.55022 22.3322 2.74064C22.1292 2.75503 21.9237 2.79962 21.7208 2.87778L18.9825 3.93248L22.0557 5.76053L22.5838 5.55157C23.1008 5.39006 23.6526 5.44028 24.1345 5.69149C24.6165 5.94269 24.9852 6.37557 25.1637 6.89961C25.2496 7.15198 25.2882 7.41609 25.2801 7.67851Z" fill="url(#paint2_radial_2770_6165)"/>
<path d="M1.46652 32.9694C1.46652 32.996 1.46672 33.0226 1.46711 33.0491C0.556452 32.2984 0 31.2946 0 30.1917C0 29.0891 0.55621 28.0855 1.46652 27.3348L1.46652 32.9694Z" fill="url(#paint3_radial_2770_6165)"/>
<defs>
<linearGradient id="paint0_linear_2770_6165" x1="34.3316" y1="22.2541" x2="-9.48553" y2="22.2541" gradientUnits="userSpaceOnUse">
<stop stop-color="#F9106D" stop-opacity="0.17"/>
<stop offset="1" stop-color="#FE1170"/>
</linearGradient>
<linearGradient id="paint1_linear_2770_6165" x1="38.8433" y1="15.7463" x2="-4.9738" y2="15.7463" gradientUnits="userSpaceOnUse">
<stop stop-color="#FE1170"/>
<stop offset="1" stop-color="#F9106D" stop-opacity="0.17"/>
</linearGradient>
<radialGradient id="paint2_radial_2770_6165" cx="0" cy="0" r="1" gradientUnits="userSpaceOnUse" gradientTransform="translate(14.0017 17.8556) rotate(-24.6475) scale(15.4052 14.1968)">
<stop stop-color="#01B3FF"/>
<stop offset="1" stop-color="#38C3FF"/>
</radialGradient>
<radialGradient id="paint3_radial_2770_6165" cx="0" cy="0" r="1" gradientUnits="userSpaceOnUse" gradientTransform="translate(14.0017 17.8556) rotate(-24.6475) scale(15.4052 14.1968)">
<stop stop-color="#01B3FF"/>
<stop offset="1" stop-color="#38C3FF"/>
</radialGradient>
</defs>
</svg>

