<svg width="29" height="25" viewBox="0 0 29 25" fill="none" xmlns="http://www.w3.org/2000/svg">
<path d="M18.6401 23.6292C18.6401 20.6116 14.9707 18.1653 10.4442 18.1653C5.91773 18.1653 2.24829 20.6116 2.24829 23.6292M21.1373 4.74019C21.6447 5.24757 22.0472 5.84991 22.3218 6.51282C22.5964 7.17574 22.738 7.88668 22.738 8.60422C22.738 9.32176 22.5965 10.0308 22.3219 10.6937C22.0473 11.3566 21.6447 11.9597 21.1373 12.467M24.1041 1.77344C25.001 2.67036 25.7125 3.73516 26.1979 4.90704C26.6833 6.07892 26.9342 7.33474 26.9342 8.60317C26.9342 9.87161 26.6838 11.1279 26.1984 12.2998C25.713 13.4717 25.001 14.5366 24.1041 15.4335M10.4442 14.0673C7.42656 14.0673 4.98027 11.621 4.98027 8.60337C4.98027 5.58572 7.42656 3.13942 10.4442 3.13942C13.4619 3.13942 15.9082 5.58572 15.9082 8.60337C15.9082 11.621 13.4619 14.0673 10.4442 14.0673Z" stroke="white" stroke-width="2.73197" stroke-linecap="round" stroke-linejoin="round"/>
</svg>
