<svg width="25" height="25" viewBox="0 0 25 25" fill="none" xmlns="http://www.w3.org/2000/svg">
<path d="M23.1673 3.46679C23.1673 2.72005 23.1668 2.34641 23.0215 2.06119C22.8937 1.81031 22.6904 1.60648 22.4396 1.47865C22.1544 1.33333 21.7802 1.33333 21.0335 1.33333H3.9668C3.22006 1.33333 2.84706 1.33333 2.56185 1.47865C2.31097 1.60648 2.10714 1.81031 1.97931 2.06119C1.83398 2.34641 1.83398 2.72006 1.83398 3.46679V4.4498C1.83398 4.77592 1.83398 4.93911 1.87082 5.09256C1.90349 5.22861 1.95749 5.35856 2.0306 5.47786C2.11303 5.61237 2.22853 5.72787 2.45898 5.95833L9.20931 12.7087C9.43989 12.9392 9.55457 13.0539 9.63702 13.1885C9.71013 13.3078 9.76486 13.4382 9.79753 13.5742C9.83399 13.7261 9.83399 13.8874 9.83398 14.2069V20.548C9.83398 21.691 9.83398 22.2628 10.0747 22.607C10.2849 22.9075 10.6092 23.108 10.972 23.1616C11.3875 23.223 11.8989 22.9677 12.9212 22.4565L13.9879 21.9232C14.416 21.7091 14.6295 21.6017 14.7859 21.4421C14.9242 21.3009 15.03 21.1313 15.0944 20.9445C15.1673 20.7332 15.1673 20.4933 15.1673 20.0147V14.2168C15.1673 13.8907 15.1673 13.7277 15.2042 13.5742C15.2368 13.4382 15.2908 13.3078 15.3639 13.1885C15.4458 13.0548 15.5602 12.9404 15.7877 12.7129L15.7923 12.7087L22.5426 5.95833C22.7732 5.72773 22.8879 5.61241 22.9704 5.47786C23.0435 5.35856 23.0982 5.22861 23.1309 5.09256C23.1673 4.94067 23.1673 4.77924 23.1673 4.45973V3.46679Z" stroke="white" stroke-width="2.66667" stroke-linecap="round" stroke-linejoin="round"/>
</svg>
