<svg width="16" height="16" viewBox="0 0 16 16" fill="none" xmlns="http://www.w3.org/2000/svg">
<path d="M1 13.0936V2.90716C1 2.06719 1 1.64674 1.18677 1.39821C1.34977 1.1813 1.60102 1.03889 1.87995 1.00484C2.19943 0.965842 2.59126 1.16362 3.3738 1.55862L13.4642 6.65185L13.4678 6.65339C14.3327 7.08991 14.7653 7.30827 14.9072 7.59931C15.0309 7.8532 15.0309 8.14628 14.9072 8.40017C14.7651 8.69162 14.3314 8.91087 13.4642 9.34862L3.3738 14.4419C2.5907 14.8371 2.19954 15.0342 1.87995 14.9951C1.60102 14.9611 1.34977 14.8187 1.18677 14.6018C1 14.3533 1 13.9336 1 13.0936Z" stroke="white" stroke-width="2" stroke-linecap="round" stroke-linejoin="round"/>
</svg>
