<svg width="35" height="38" viewBox="0 0 35 38" fill="none" xmlns="http://www.w3.org/2000/svg">
<path d="M27.0719 17.9371C30.3454 19.8843 30.3454 24.624 27.0719 26.5711L9.05748 37.2867C5.70923 39.2784 1.46655 36.8655 1.46655 32.9697L1.46655 11.5385C1.46655 7.6427 5.70922 5.22987 9.05748 7.22152L27.0719 17.9371Z" fill="url(#paint0_linear_901_1373)"/>
<path d="M33.052 18.7509C34.7501 16.4779 34.2614 13.0208 31.5859 11.4293L25.5308 7.82756V4.70341H21.132V5.21096L13.5714 0.713706C11.751 -0.369162 9.66611 -0.150005 8.14252 0.901617C6.86384 1.78418 5.98047 3.25307 5.98047 5.03074L5.98047 26.4619C5.98047 29.3838 8.367 31.4715 10.9728 31.4924C11.8414 31.4994 12.7343 31.2768 13.5714 30.7789C13.5714 30.7789 13.5714 30.7789 13.5714 30.7789L31.5858 20.0633C31.5858 20.0633 31.5858 20.0633 31.5858 20.0633C32.1837 19.7077 32.6725 19.2588 33.052 18.7509Z" fill="url(#paint1_linear_901_1373)"/>
<path d="M24.9641 12.2089C26.1193 11.7377 27.0525 10.8261 27.5686 9.66446C28.0846 8.50287 28.1436 7.18131 27.7331 5.97609C27.3227 4.77088 26.4746 3.77532 25.3662 3.19759C24.4259 2.70744 23.3599 2.55022 22.3322 2.74064C22.1292 2.75503 21.9237 2.79962 21.7207 2.87778L9.15889 7.71622C8.95096 7.79631 8.76882 7.91433 8.61731 8.05933C8.30528 8.32822 8.10774 8.72631 8.10774 9.17053V26.467C7.33739 26.1565 6.45913 25.9807 5.52697 25.9807C2.47451 25.9807 0 27.866 0 30.1917C0 32.5174 2.47451 34.4027 5.52697 34.4027C8.57944 34.4027 11.0539 32.5174 11.0539 30.1917C11.0539 30.0915 11.0494 29.9922 11.0403 29.8938V10.1192L22.5698 5.52497L22.5777 5.55171C23.0948 5.3902 23.6526 5.44028 24.1345 5.69149C24.6165 5.94269 24.9852 6.37557 25.1637 6.89961C25.3421 7.42364 25.3165 7.99827 25.0921 8.50334C24.8677 9.00841 24.462 9.40481 23.9597 9.60967L23.9625 9.61703L14.0925 13.2948C13.8547 13.3834 13.6611 13.5615 13.5529 13.7911C12.9823 15.0021 14.1758 16.2921 15.4275 15.8172L20.2495 13.9876C21.0981 13.8827 23.8224 13.9979 23.8449 16.6798C23.8601 18.4838 23.858 19.5228 23.8523 20.0386C23.0558 19.6995 22.1377 19.5062 21.1604 19.5062C18.108 19.5062 15.6334 21.3916 15.6334 23.7173C15.6334 26.043 18.108 27.9283 21.1604 27.9283C24.078 27.9283 26.4676 26.2059 26.6731 24.0228H26.7137V16.6798C26.7049 15.7148 26.2505 13.5058 24.5029 12.3898C24.4986 12.3871 24.4943 12.3844 24.49 12.3817L24.487 12.3798L24.8647 12.2365C24.8969 12.2243 24.9286 12.2114 24.9598 12.1977L24.9641 12.2089Z" fill="white"/>
<path d="M25.2801 7.67851L27.7625 9.15513C28.0919 8.12583 28.0847 7.00829 27.7331 5.97609C27.3227 4.77088 26.4746 3.77532 25.3662 3.19759C24.4259 2.70744 23.3599 2.55022 22.3322 2.74064C22.1292 2.75503 21.9237 2.79962 21.7208 2.87778L18.9825 3.93248L22.0557 5.76053L22.5838 5.55157C23.1008 5.39006 23.6526 5.44028 24.1345 5.69149C24.6165 5.94269 24.9852 6.37557 25.1637 6.89961C25.2496 7.15198 25.2882 7.41609 25.2801 7.67851Z" fill="url(#paint2_radial_901_1373)"/>
<path d="M1.46652 32.9694C1.46652 32.996 1.46672 33.0226 1.46711 33.0491C0.556452 32.2984 0 31.2946 0 30.1917C0 29.0891 0.55621 28.0855 1.46652 27.3348L1.46652 32.9694Z" fill="url(#paint3_radial_901_1373)"/>
<defs>
<linearGradient id="paint0_linear_901_1373" x1="34.3294" y1="22.2541" x2="-9.48773" y2="22.2541" gradientUnits="userSpaceOnUse">
<stop stop-color="#F9106D" stop-opacity="0.17"/>
<stop offset="1" stop-color="#FE1170"/>
</linearGradient>
<linearGradient id="paint1_linear_901_1373" x1="38.8433" y1="15.7463" x2="-4.9738" y2="15.7463" gradientUnits="userSpaceOnUse">
<stop stop-color="#FE1170"/>
<stop offset="1" stop-color="#F9106D" stop-opacity="0.17"/>
</linearGradient>
<radialGradient id="paint2_radial_901_1373" cx="0" cy="0" r="1" gradientUnits="userSpaceOnUse" gradientTransform="translate(14.0017 17.8556) rotate(-24.6475) scale(15.4052 14.1968)">
<stop stop-color="#01B3FF"/>
<stop offset="1" stop-color="#38C3FF"/>
</radialGradient>
<radialGradient id="paint3_radial_901_1373" cx="0" cy="0" r="1" gradientUnits="userSpaceOnUse" gradientTransform="translate(14.0017 17.8556) rotate(-24.6475) scale(15.4052 14.1968)">
<stop stop-color="#01B3FF"/>
<stop offset="1" stop-color="#38C3FF"/>
</radialGradient>
</defs>
</svg>
