<svg width="26" height="24" viewBox="0 0 26 24" fill="none" xmlns="http://www.w3.org/2000/svg">
<path d="M4.50065 6L10.8628 10.6123L10.8649 10.614C11.5713 11.1113 11.9248 11.3601 12.3119 11.4562C12.654 11.5412 13.0137 11.5412 13.3558 11.4562C13.7433 11.36 14.0977 11.1105 14.8054 10.6123C14.8054 10.6123 18.8862 7.60594 21.1673 6M3.45898 15.8002V8.2002C3.45898 7.08009 3.45898 6.51962 3.68605 6.0918C3.88579 5.71547 4.20427 5.40973 4.59627 5.21799C5.04192 5 5.62575 5 6.79252 5H18.8759C20.0426 5 20.6252 5 21.0709 5.21799C21.4629 5.40973 21.7824 5.71547 21.9821 6.0918C22.209 6.5192 22.209 7.07899 22.209 8.19691V15.8036C22.209 16.9215 22.209 17.4805 21.9821 17.9079C21.7824 18.2842 21.4629 18.5905 21.0709 18.7822C20.6256 19 20.0434 19 18.8789 19H6.7891C5.6246 19 5.04149 19 4.59627 18.7822C4.20427 18.5905 3.88579 18.2842 3.68605 17.9079C3.45898 17.4801 3.45898 16.9203 3.45898 15.8002Z" stroke="#787885" stroke-width="2" stroke-linecap="round" stroke-linejoin="round"/>
</svg>
