<svg xmlns="http://www.w3.org/2000/svg" width="18" height="18" viewBox="0 0 18 18" fill="none">
  <path d="M3 15.0001H15M3 15.0001V12.0001L9 6.00009M3 15.0001L6 15.0001L12 9.00008M9 6.00009L11.1515 3.8486L11.1528 3.84732C11.4489 3.55116 11.5973 3.40282 11.7683 3.34725C11.9189 3.29831 12.0812 3.29831 12.2318 3.34725C12.4027 3.40278 12.5509 3.55095 12.8466 3.84669L14.1515 5.15154C14.4485 5.44855 14.597 5.59713 14.6527 5.76837C14.7016 5.91901 14.7016 6.08127 14.6527 6.2319C14.5971 6.40302 14.4487 6.55137 14.1521 6.84796L14.1515 6.8486L12 9.00008M9 6.00009L12 9.00008" stroke="#787885" stroke-width="1.5" stroke-linecap="round" stroke-linejoin="round"/>
</svg>