<svg width="25" height="24" viewBox="0 0 25 24" fill="none" xmlns="http://www.w3.org/2000/svg">
<path d="M10.1685 4.25722C9.86475 3.4979 9.12933 3 8.31152 3H5.56075C4.51432 3 3.66602 3.8481 3.66602 4.89453C3.66602 13.7892 10.8768 21 19.7715 21C20.8179 21 21.666 20.1516 21.666 19.1052L21.6665 16.354C21.6665 15.5361 21.1687 14.8009 20.4094 14.4971L17.7729 13.4429C17.0909 13.1701 16.3143 13.2929 15.75 13.7632L15.0695 14.3307C14.2749 14.9929 13.1056 14.9402 12.3742 14.2088L10.4582 12.2911C9.7268 11.5596 9.67275 10.3913 10.335 9.59668L10.9023 8.9163C11.3726 8.35195 11.4965 7.57516 11.2237 6.89309L10.1685 4.25722Z" stroke="#787885" stroke-width="2" stroke-linecap="round" stroke-linejoin="round"/>
</svg>
