<svg width="18" height="18" viewBox="0 0 18 18" fill="none" xmlns="http://www.w3.org/2000/svg">
<path d="M10.4998 7.5V12.75M7.49982 7.5V12.75M4.49982 4.5V13.35C4.49982 14.1901 4.49982 14.6098 4.66331 14.9307C4.80712 15.2129 5.03642 15.4429 5.31866 15.5867C5.63922 15.75 6.05906 15.75 6.8975 15.75H11.1021C11.9406 15.75 12.3598 15.75 12.6804 15.5867C12.9626 15.4429 13.1927 15.2129 13.3365 14.9307C13.4998 14.6101 13.4998 14.1908 13.4998 13.3523V4.5M4.49982 4.5H5.99982M4.49982 4.5H2.99982M5.99982 4.5H11.9998M5.99982 4.5C5.99982 3.80109 5.99982 3.4518 6.114 3.17615C6.26624 2.80861 6.55806 2.51642 6.9256 2.36418C7.20125 2.25 7.5509 2.25 8.24982 2.25H9.74982C10.4487 2.25 10.7982 2.25 11.0738 2.36418C11.4414 2.51642 11.7333 2.80861 11.8856 3.17615C11.9997 3.4518 11.9998 3.80109 11.9998 4.5M11.9998 4.5H13.4998M13.4998 4.5H14.9998" stroke="#787885" stroke-width="1.5" stroke-linecap="round" stroke-linejoin="round"/>
</svg>
