<svg width="25" height="24" viewBox="0 0 25 24" fill="none" xmlns="http://www.w3.org/2000/svg">
<rect x="0.333984" width="24" height="24" rx="12" fill="#787885"/>
<path d="M20.553 7.87825C20.3553 7.1439 19.7763 6.56489 19.042 6.36718C17.7003 6 12.3339 6 12.3339 6C12.3339 6 6.96746 6 5.62585 6.35306C4.90562 6.55077 4.31249 7.1439 4.11477 7.87825C3.76172 9.21986 3.76172 12.0019 3.76172 12.0019C3.76172 12.0019 3.76172 14.7981 4.11477 16.1256C4.31249 16.86 4.8915 17.439 5.62585 17.6367C6.98158 18.0039 12.3339 18.0039 12.3339 18.0039C12.3339 18.0039 17.7003 18.0039 19.042 17.6508C19.7763 17.4531 20.3553 16.8741 20.553 16.1397C20.9061 14.7981 20.9061 12.0161 20.9061 12.0161C20.9061 12.0161 20.9202 9.21986 20.553 7.87825Z" fill="#0F141D"/>
<path d="M10.625 14.5721L15.0876 12.0019L10.625 9.43164V14.5721Z" fill="#787885"/>
</svg>
