<svg width="14" height="14" viewBox="0 0 14 14" fill="none" xmlns="http://www.w3.org/2000/svg">
<path d="M1 3.40015V10.6001C1 11.4402 1 11.86 1.16349 12.1809C1.3073 12.4632 1.5366 12.6929 1.81885 12.8367C2.1394 13 2.55925 13 3.39768 13H10.6023C11.4408 13 11.86 13 12.1805 12.8367C12.4628 12.6929 12.6929 12.4632 12.8367 12.1809C13 11.8604 13 11.4411 13 10.6027V3.39768C13 2.55925 13 2.1394 12.8367 1.81885C12.6929 1.5366 12.4628 1.3073 12.1805 1.16349C11.8597 1 11.4402 1 10.6001 1H3.40015C2.56007 1 2.13972 1 1.81885 1.16349C1.5366 1.3073 1.3073 1.5366 1.16349 1.81885C1 2.13972 1 2.56007 1 3.40015Z" stroke="#787885" stroke-width="1.5" stroke-linecap="round" stroke-linejoin="round"/>
</svg>
