<svg width="14" height="14" viewBox="0 0 14 14" fill="none" xmlns="http://www.w3.org/2000/svg">
<path d="M4 7L6.25 9.25L10 4.75M1 10.6001V3.40015C1 2.56007 1 2.13972 1.16349 1.81885C1.3073 1.5366 1.5366 1.3073 1.81885 1.16349C2.13972 1 2.56007 1 3.40015 1H10.6001C11.4402 1 11.8597 1 12.1805 1.16349C12.4628 1.3073 12.6929 1.5366 12.8367 1.81885C13 2.1394 13 2.55925 13 3.39768V10.6027C13 11.4411 13 11.8604 12.8367 12.1809C12.6929 12.4632 12.4628 12.6929 12.1805 12.8367C11.86 13 11.4408 13 10.6023 13H3.39768C2.55925 13 2.1394 13 1.81885 12.8367C1.5366 12.6929 1.3073 12.4632 1.16349 12.1809C1 11.86 1 11.4402 1 10.6001Z" stroke="#FE1170" stroke-width="1.5" stroke-linecap="round" stroke-linejoin="round"/>
</svg>
