<svg width="24" height="24" viewBox="0 0 24 24" fill="none" xmlns="http://www.w3.org/2000/svg">
<path d="M16.0137 3.42902H18.3023C18.7874 3.42044 19.2588 3.59028 19.6269 3.90629C19.9951 4.22231 20.2344 4.6625 20.2994 5.14331V11.1433C20.2344 11.6241 19.9951 12.0643 19.6269 12.3803C19.2588 12.6963 18.7874 12.8662 18.3023 12.8576H16.0137M10.0137 14.5719V18.0005C10.0137 18.6824 10.2846 19.3365 10.7669 19.8187C11.2491 20.301 11.9032 20.5719 12.5851 20.5719L16.0137 12.8576V3.42902H6.34514C5.93172 3.42435 5.53053 3.56924 5.21551 3.83702C4.90049 4.10479 4.69285 4.47739 4.63086 4.88616L3.448 12.6004C3.41071 12.8461 3.42728 13.097 3.49657 13.3357C3.56585 13.5743 3.6862 13.7951 3.84927 13.9826C4.01233 14.1701 4.21422 14.3199 4.44094 14.4217C4.66766 14.5234 4.91379 14.5747 5.16229 14.5719H10.0137Z" stroke="#FE1170" stroke-width="2" stroke-linecap="round" stroke-linejoin="round"/>
</svg>
